<?xml version="1.0" encoding="UTF-8"?>
<svg width="750" height="471" viewBox="0 0 750 471" version="1.1" xmlns="http://www.w3.org/2000/svg">
    <g fill="none" fill-rule="evenodd">
        <rect fill="#2557D6" width="750" height="471" rx="40"/>
        <path d="M225,382.5 L225,314.5 L242.5,314.5 L260,352.5 L277.5,314.5 L295,314.5 L295,382.5 L280,382.5 L280,332.5 L265,365.5 L255,365.5 L240,332.5 L240,382.5 L225,382.5 Z M320,382.5 L320,314.5 L365,314.5 L365,327.5 L335,327.5 L335,342.5 L365,342.5 L365,355.5 L335,355.5 L335,370.5 L365,370.5 L365,382.5 L320,382.5 Z M390,382.5 L390,314.5 L420,314.5 C432.5,314.5 440,321.5 440,332.5 C440,340.5 435,345.5 430,347.5 C437.5,349.5 442.5,355.5 442.5,365.5 C442.5,377.5 435,382.5 420,382.5 L390,382.5 Z M405,342.5 L420,342.5 C425,342.5 427.5,340.5 427.5,335.5 C427.5,330.5 425,327.5 420,327.5 L405,327.5 L405,342.5 Z M405,370.5 L420,370.5 C425,370.5 427.5,367.5 427.5,362.5 C427.5,357.5 425,355.5 420,355.5 L405,355.5 L405,370.5 Z" fill="#FFFFFF"/>
        <path d="M482.5,382.5 L455,314.5 L472.5,314.5 L490,362.5 L507.5,314.5 L525,314.5 L497.5,382.5 L482.5,382.5 Z M535,382.5 L535,314.5 L580,314.5 L580,327.5 L550,327.5 L550,342.5 L580,342.5 L580,355.5 L550,355.5 L550,370.5 L580,370.5 L580,382.5 L535,382.5 Z" fill="#FFFFFF"/>
        <path d="M225,157.5 L225,89.5 L242.5,89.5 L260,127.5 L277.5,89.5 L295,89.5 L295,157.5 L280,157.5 L280,107.5 L265,140.5 L255,140.5 L240,107.5 L240,157.5 L225,157.5 Z M320,157.5 L320,89.5 L365,89.5 L365,102.5 L335,102.5 L335,117.5 L365,117.5 L365,130.5 L335,130.5 L335,145.5 L365,145.5 L365,157.5 L320,157.5 Z M390,157.5 L390,89.5 L420,89.5 C432.5,89.5 440,96.5 440,107.5 C440,115.5 435,120.5 430,122.5 C437.5,124.5 442.5,130.5 442.5,140.5 C442.5,152.5 435,157.5 420,157.5 L390,157.5 Z M405,117.5 L420,117.5 C425,117.5 427.5,115.5 427.5,110.5 C427.5,105.5 425,102.5 420,102.5 L405,102.5 L405,117.5 Z M405,145.5 L420,145.5 C425,145.5 427.5,142.5 427.5,137.5 C427.5,132.5 425,130.5 420,130.5 L405,130.5 L405,145.5 Z" fill="#FFFFFF"/>
    </g>
</svg>
