<?xml version="1.0" encoding="UTF-8"?>
<svg width="750" height="471" viewBox="0 0 750 471" version="1.1" xmlns="http://www.w3.org/2000/svg">
    <g fill="none" fill-rule="evenodd">
        <rect fill="#000000" width="750" height="471" rx="40"/>
        <path d="M375,235.5 C375,296.604 325.604,346 264.5,346 C203.396,346 154,296.604 154,235.5 C154,174.396 203.396,125 264.5,125 C325.604,125 375,174.396 375,235.5" fill="#EF4123"/>
        <path d="M596,235.5 C596,296.604 546.604,346 485.5,346 C424.396,346 375,296.604 375,235.5 C375,174.396 424.396,125 485.5,125 C546.604,125 596,174.396 596,235.5" fill="#00A4E0"/>
        <path d="M485.5,125 C546.604,125 596,174.396 596,235.5 C596,296.604 546.604,346 485.5,346 C424.396,346 375,296.604 375,235.5 C375,174.396 424.396,125 485.5,125" fill="#00A4E0"/>
        <path d="M375,235.5 C375,174.396 424.396,125 485.5,125 C546.604,125 596,174.396 596,235.5" fill="#FFF200"/>
    </g>
</svg>
