<?xml version="1.0" encoding="UTF-8"?>
<svg width="750" height="471" viewBox="0 0 750 471" version="1.1" xmlns="http://www.w3.org/2000/svg">
    <g fill="none" fill-rule="evenodd">
        <rect fill="#822124" width="750" height="471" rx="40"/>
        <path d="M278.197,334.228 L306.312,137.772 L364.262,137.772 L336.146,334.228 L278.197,334.228 Z" fill="#FFFFFF"/>
        <path d="M524.307,142.687 C515.584,139.093 501.915,135.255 485.368,135.255 C428.964,135.255 389.603,164.266 389.474,204.588 C389.354,234.342 417.503,250.295 438.294,259.798 C459.598,269.451 466.836,275.571 466.799,284.188 C466.744,297.307 450.915,303.291 436.154,303.291 C415.919,303.291 404.617,300.099 387.72,291.732 L380.866,288.392 L373.453,334.319 C383.645,338.772 403.089,342.643 423.108,342.879 C483.054,342.879 521.65,314.181 521.831,271.592 C521.92,247.764 507.385,229.596 475.505,215.069 C455.998,205.777 444.109,199.522 444.175,189.719 C444.175,181.032 454.019,174.66 474.883,174.66 C492.715,174.525 505.297,177.995 515.091,181.908 L519.825,184.181 L527.22,142.687 L524.307,142.687 Z" fill="#FFFFFF"/>
    </g>
</svg>
