<?xml version="1.0" encoding="UTF-8"?>
<svg width="750" height="471" viewBox="0 0 750 471" version="1.1" xmlns="http://www.w3.org/2000/svg">
    <g fill="none" fill-rule="evenodd">
        <rect fill="#000000" width="750" height="471" rx="40"/>
        <path d="M434.008,235.5 C434.008,332.97 354.507,411.5 256,411.5 C157.493,411.5 77.992,332.97 77.992,235.5 C77.992,138.03 157.493,59.5 256,59.5 C354.507,59.5 434.008,138.03 434.008,235.5" fill="#D9222A"/>
        <path d="M672.008,235.5 C672.008,332.97 592.507,411.5 494,411.5 C395.493,411.5 315.992,332.97 315.992,235.5 C315.992,138.03 395.493,59.5 494,59.5 C592.507,59.5 672.008,138.03 672.008,235.5" fill="#EE9F2D"/>
        <path d="M375,235.5 C375,184.253 400.959,138.871 440.609,112.5 C400.959,86.129 375,40.747 375,0 C375,51.247 349.041,96.629 309.391,123 C349.041,149.371 375,194.753 375,235.5" fill="#D9222A"/>
    </g>
</svg>
