<?xml version="1.0" encoding="UTF-8"?>
<svg width="750" height="471" viewBox="0 0 750 471" version="1.1" xmlns="http://www.w3.org/2000/svg">
    <g fill="none" fill-rule="evenodd">
        <rect fill="#0E4595" width="750" height="471" rx="40"/>
        <path d="M278.197,334.228 L306.312,137.772 L364.262,137.772 L336.146,334.228 L278.197,334.228 Z" fill="#FFFFFF"/>
        <path d="M524.307,142.687 C515.584,139.093 501.915,135.255 485.368,135.255 C428.964,135.255 389.603,164.266 389.474,204.588 C389.354,234.342 417.503,250.295 438.294,259.798 C459.598,269.451 466.836,275.571 466.799,284.188 C466.744,297.307 450.915,303.291 436.154,303.291 C415.919,303.291 404.617,300.099 387.72,291.732 L380.866,288.392 L373.453,334.319 C383.645,338.772 403.089,342.643 423.108,342.879 C483.054,342.879 521.65,314.181 521.831,271.592 C521.92,247.764 507.385,229.596 475.505,215.069 C455.998,205.777 444.109,199.522 444.175,189.719 C444.175,181.032 454.019,174.66 474.883,174.66 C492.715,174.525 505.297,177.995 515.091,181.908 L519.825,184.181 L527.22,142.687 L524.307,142.687 Z" fill="#FFFFFF"/>
        <path d="M661.615,137.772 L617.444,137.772 C605.918,137.772 597.566,140.823 592.66,154.205 L513.018,334.228 L573.325,334.228 C573.325,334.228 583.331,306.603 585.657,300.74 C591.67,300.74 650.216,300.74 657.913,300.74 C659.753,308.537 665.018,334.228 665.018,334.228 L719.189,334.228 L661.615,137.772 Z M602.885,264.464 C607.521,252.905 624.056,209.81 624.056,209.81 C623.771,210.255 628.037,199.425 630.396,192.995 L633.5,207.643 C633.5,207.643 644.255,256.308 646.672,264.464 L602.885,264.464 Z" fill="#FFFFFF"/>
        <path d="M232.903,137.772 L180.664,271.038 L175.125,248.133 C165.965,216.466 134.898,182.855 100.239,165.605 L147.806,334.089 L208.486,334.089 L289.453,137.772 L232.903,137.772 Z" fill="#FFFFFF"/>
        <path d="M131.92,137.772 L30.954,137.772 L30,142.563 C91.488,157.632 131.915,190.286 152.309,227.905 L131.92,137.772 Z" fill="#F2AE14"/>
    </g>
</svg>
