<svg xmlns="http://www.w3.org/2000/svg" viewBox="0 0 165.52 40.76">
  <path fill="#000" d="M30.05,11.07a5.42,5.42,0,0,1,1.26-3.78,5.53,5.53,0,0,1,3.79-1.78,5.52,5.52,0,0,1-1.26,3.78A4.57,4.57,0,0,1,30.05,11.07Zm3.79,2.1c2.1,0,3.78,1.26,4.62,1.26s1.68-1.26,3.78-1.26a5.52,5.52,0,0,1,4.62,2.52c-4.2,2.52-3.36,8.4.84,10.08a9.06,9.06,0,0,1-2.1,4.2c-1.26,1.68-2.52,3.78-4.62,3.78s-2.52-1.26-4.62-1.26-2.52,1.26-4.62,1.26-3.36-2.1-4.62-3.78c-2.52-3.78-4.2-10.92-1.68-15.54a7.39,7.39,0,0,1,6.3-3.78C32.57,10.23,32.57,13.17,33.84,13.17ZM55.1,0A5.52,5.52,0,0,1,60.14,5.52V35.24a5.52,5.52,0,0,1-5.52,5.52H5.52A5.52,5.52,0,0,1,0,35.24V5.52A5.52,5.52,0,0,1,5.52,0Z"/>
  <path fill="#000" d="M79.38,24.36H71.82l-1.82,5.32H67l7.14-19.74h2.94l7.14,19.74H81.2Zm-6.86-2.52h6.16l-3-8.82h-.08ZM97.44,24c0,3.64-1.96,6-4.9,6a4,4,0,0,1-3.71-2.06h-.06v5.81H86v-15.4h2.66v2h.06a4.14,4.14,0,0,1,3.71-2.11C95.48,18.19,97.44,20.52,97.44,24Zm-2.86,0c0-2.37-1.23-3.93-3.1-3.93-1.84,0-3.08,1.6-3.08,3.93s1.24,3.94,3.08,3.94C93.35,27.89,94.58,26.33,94.58,24Zm15.16,0c0,3.64-2,6-4.9,6a4,4,0,0,1-3.71-2.06h-.06v5.81h-2.77v-15.4h2.66v2h.06a4.14,4.14,0,0,1,3.71-2.11C107.78,18.19,109.74,20.52,109.74,24Zm-2.86,0c0-2.37-1.23-3.93-3.1-3.93-1.84,0-3.08,1.6-3.08,3.93s1.24,3.94,3.08,3.94C105.65,27.89,106.88,26.33,106.88,24Zm7.36-5.76h2.66v2h.06a3.24,3.24,0,0,1,3.24-2.16,3.12,3.12,0,0,1,3.41,2.42h.06a3.5,3.5,0,0,1,3.52-2.42c2.24,0,3.58,1.47,3.58,4v8.52h-2.77V22.4c0-1.55-.68-2.34-2.08-2.34a2.17,2.17,0,0,0-2.21,2.34v7.28h-2.71V22.4c0-1.55-.72-2.34-2.08-2.34a2.21,2.21,0,0,0-2.21,2.34v7.28h-2.77V18.24Zm21.9,11.44h-2.77V18.24h2.77Zm-3-15.4a1.64,1.64,0,0,1,1.66-1.66,1.66,1.66,0,1,1-1.66,1.66Zm8.22,8.46c0-2.37,1.23-3.93,3.1-3.93s3.08,1.56,3.08,3.93-1.24,3.94-3.08,3.94S141.38,24.37,141.38,22Zm9,7.64h-2.66v-2h-.06a4.14,4.14,0,0,1-3.71,2.11c-2.94,0-4.9-2.32-4.9-6s2-6,4.9-6a4,4,0,0,1,3.71,2.06h.06v-5.81h2.77v15.4Zm14.14-5.68c-.31,2.06-2.29,3.47-4.82,3.47-3.26,0-5.28-2.19-5.28-5.69s2-5.76,5.16-5.76c3.08,0,5,2.11,5,5.47v.78h-7.35v.14a2.58,2.58,0,0,0,2.63,2.81,2.24,2.24,0,0,0,2.29-1.22Zm-7.29-3.35h4.58a2.37,2.37,0,0,0-2.42-2.5A2.51,2.51,0,0,0,157.23,20.65Z"/>
</svg>
