<svg xmlns="http://www.w3.org/2000/svg" viewBox="0 0 437 174">
  <path fill="#5F6368" d="M207.2 84.6v50.8h-16.1V10h42.7c10.3-.2 20.2 3.7 27.7 10.9 7.5 7.2 11.7 17 11.7 27.3 0 10.4-4.2 20.3-11.7 27.6-7.5 7.3-17.4 11.2-27.7 10.9h-26.6v-2.1zm0-59.5v44.4h27.1c7.2.2 14.1-2.5 19.3-7.5 5.2-5 8.1-11.8 8.1-18.9 0-7.1-2.9-13.9-8.1-18.9-5.2-5-12.2-7.7-19.3-7.5h-27.1v8.4zM309.1 46.1c11.9 0 21.3 3.2 28.2 9.5 6.9 6.4 10.3 15.1 10.3 26.2v53.6h-15.4v-12.1h-.7c-6.7 9.8-15.6 14.7-26.7 14.7-9.5 0-17.4-2.8-23.7-8.4-6.2-5.2-9.7-12.9-9.5-21 0-8.9 3.4-15.9 10.1-21.2 6.7-5.3 15.7-7.9 26.9-7.9 9.6 0 17.4 1.8 23.6 5.2v-3.7c0-5.5-2.3-10.8-6.3-14.5-4.1-4-9.6-6.2-15.3-6-8.9 0-15.9 3.8-20.9 11.4l-14.2-8.9c7.7-11.1 19.2-16.9 34.6-16.9zm-20.8 62.3c0 4.2 2 8.2 5.4 10.8 3.6 2.9 8.1 4.5 12.7 4.4 6.9 0 13.5-2.7 18.5-7.5 5.6-4.9 8.4-11 8.4-18.1-5-3.2-11.8-4.8-20.3-4.8-6.3 0-11.6 1.5-15.7 4.5-4.1 3.1-6.2 6.7-6.2 10.7h-2.8zM437 49.6l-53.8 123.6h-16.6l20-43.2-35.4-80.3h17.5l25.5 61.6h.4l24.9-61.6H437z"/>
  <path fill="#4285F4" d="M142.1 73.6c0-4.9-.4-9.8-1.2-14.6H73v27.7h38.9c-1.6 8.9-6.8 16.9-14.4 21.9v18h23.2c13.6-12.5 21.4-31 21.4-53z"/>
  <path fill="#34A853" d="M73 144c19.4 0 35.7-6.4 47.6-17.4l-23.2-18c-6.5 4.4-14.8 6.9-24.3 6.9-18.8 0-34.7-12.7-40.4-29.7H8.7v18.6C20.9 128.6 45.8 144 73 144z"/>
  <path fill="#FBBC04" d="M32.6 85.8c-3-8.9-3-18.6 0-27.6V39.7H8.7a71.39 71.39 0 0 0 0 64.6l23.9-18.5z"/>
  <path fill="#EA4335" d="M73 28.5c10.3-.2 20.2 3.7 27.7 10.8l20.6-20.6C108.3 6.1 91.1-.8 73 0 45.8 0 20.9 15.4 8.7 39.7l23.9 18.6C38.3 41.2 54.2 28.5 73 28.5z"/>
</svg>
