<svg xmlns="http://www.w3.org/2000/svg" viewBox="0 0 131.39 86.9">
  <path fill="#FF5F00" d="M48.37,15.14h34.66v56.61H48.37z"/>
  <path fill="#EB001B" d="M51.94,43.45c0-11.5,5.38-21.76,13.75-28.31A43.37,43.37,0,0,0,65.69,0C47.86,0,33.33,19.41,33.33,43.45S47.86,86.9,65.69,86.9c0-4.62,0-9.25,0-13.87-8.37-6.55-13.75-16.81-13.75-28.31"/>
  <path fill="#F79E1B" d="M117.07,43.45c0,24-14.53,43.45-32.36,43.45H65.69c8.37-6.55,13.75-16.81,13.75-28.31S74.06,32.64,65.69,26.09V0h19c17.83,0,32.36,19.41,32.36,43.45"/>
</svg>
