<svg xmlns="http://www.w3.org/2000/svg" viewBox="0 0 1000 324.68">
  <path fill="#1434CB" d="M651.19,0l-87.44,323.39h139.57L791.75,0H651.19z M479.77,0c-27.15,0-52.51,14.41-59.29,36.65L299.55,323.4h142.51l16.88-47.83h103.67l9.82,47.83h125.67L631.71,0H479.77z M482.9,204.13l43.1-121.92l24.55,121.92H482.9z M267.53,0L126.82,220.81L74.62,35.54C70.41,14.41,52.61,0,32.79,0H0.64L0,8.78c25.97,5.61,55.45,14.66,73.25,24.28c10.95,5.61,14.06,10.68,17.71,23.73l59.29,266.6h143.05L459.95,0H267.53z M842.82,0l-108.96,323.39h134.83L977.65,0H842.82z"/>
</svg>
