<svg width="48" height="48" viewBox="0 0 48 48" fill="none" xmlns="http://www.w3.org/2000/svg">
<path d="M24.0547 0H23.9453C10.7207 0 0 10.7207 0 23.9453V24.0547C0 37.2793 10.7207 48 23.9453 48H24.0547C37.2793 48 48 37.2793 48 24.0547V23.9453C48 10.7207 37.2793 0 24.0547 0Z" fill="url(#paint0_linear_78_110)"/>
<path d="M31.4271 9.76538H16.5746C12.4713 9.76538 9.13316 13.1035 9.13316 17.2068V30.7947C9.13316 34.898 12.4713 38.2361 16.5746 38.2361H31.4271C35.5304 38.2361 38.8685 34.898 38.8685 30.7947V17.2068C38.8685 13.1035 35.5304 9.76538 31.4271 9.76538ZM11.7583 17.2068C11.7583 14.5514 13.9192 12.3905 16.5746 12.3905H31.4271C34.0825 12.3905 36.2434 14.5514 36.2434 17.2068V30.7947C36.2434 33.4501 34.0825 35.611 31.4271 35.611H16.5746C13.9192 35.611 11.7583 33.4501 11.7583 30.7947V17.2068Z" fill="white"/>
<path d="M24.0009 30.9209C27.8166 30.9209 30.9226 27.8166 30.9226 23.9992C30.9226 20.1818 27.8183 17.0774 24.0009 17.0774C20.1835 17.0774 17.0791 20.1818 17.0791 23.9992C17.0791 27.8166 20.1835 30.9209 24.0009 30.9209ZM24.0009 19.7042C26.3704 19.7042 28.2975 21.6314 28.2975 24.0008C28.2975 26.3703 26.3704 28.2975 24.0009 28.2975C21.6314 28.2975 19.7042 26.3703 19.7042 24.0008C19.7042 21.6314 21.6314 19.7042 24.0009 19.7042Z" fill="white"/>
<path d="M31.5634 18.1955C32.5909 18.1955 33.4283 17.3597 33.4283 16.3306C33.4283 15.3014 32.5925 14.4656 31.5634 14.4656C30.5342 14.4656 29.6984 15.3014 29.6984 16.3306C29.6984 17.3597 30.5342 18.1955 31.5634 18.1955Z" fill="white"/>
<defs>
<linearGradient id="paint0_linear_78_110" x1="7.01258" y1="40.9874" x2="40.9874" y2="7.01426" gradientUnits="userSpaceOnUse">
<stop stop-color="#FAAD4F"/>
<stop offset="0.35" stop-color="#DD2A7B"/>
<stop offset="0.62" stop-color="#9537B0"/>
<stop offset="1" stop-color="#515BD4"/>
</linearGradient>
</defs>
</svg>
