<svg width="49" height="49" viewBox="0 0 49 49" fill="none" xmlns="http://www.w3.org/2000/svg">
<path d="M25.0547 1.00269H24.9453C11.7207 1.00269 1 11.7234 1 24.948V25.0573C1 38.282 11.7207 49.0027 24.9453 49.0027H25.0547C38.2793 49.0027 49 38.282 49 25.0573V24.948C49 11.7234 38.2793 1.00269 25.0547 1.00269Z" fill="url(#paint0_linear_81_148)"/>
<path d="M24.9533 0.568359H24.844C11.6193 0.568359 0.898651 11.2891 0.898651 24.5137V24.623C0.898651 37.8477 11.6193 48.5684 24.844 48.5684H24.9533C38.178 48.5684 48.8987 37.8477 48.8987 24.623V24.5137C48.8987 11.2891 38.178 0.568359 24.9533 0.568359Z" fill="black"/>
<path d="M37.0681 19.6317V24.1638C36.276 24.0865 35.2468 23.9065 34.1083 23.4895C32.6217 22.9446 31.5152 22.1996 30.7904 21.6228V30.7829L30.7719 30.7543C30.7837 30.9359 30.7904 31.1209 30.7904 31.3076C30.7904 35.8565 27.089 39.5595 22.5384 39.5595C17.9878 39.5595 14.2864 35.8565 14.2864 31.3076C14.2864 26.7586 17.9878 23.0539 22.5384 23.0539C22.9841 23.0539 23.4213 23.0892 23.8484 23.1582V27.6247C23.4381 27.4784 22.9975 27.3994 22.5384 27.3994C20.3842 27.3994 18.6302 29.1517 18.6302 31.3076C18.6302 33.4635 20.3842 35.2158 22.5384 35.2158C24.6926 35.2158 26.4466 33.4618 26.4466 31.3076C26.4466 31.2268 26.4449 31.1461 26.4399 31.0654V13.2649H30.9686C30.9855 13.6483 31.0006 14.0351 31.0174 14.4185C31.0477 15.1736 31.3167 15.8984 31.7859 16.492C32.3358 17.1899 33.1481 18.0005 34.2883 18.6479C35.3561 19.2533 36.3584 19.5123 37.0681 19.6351V19.6317Z" fill="#FF004F"/>
<path d="M35.5108 15.9525V20.4846C34.7188 20.4072 33.6896 20.2273 32.5511 19.8102C31.0645 19.2654 29.9579 18.5204 29.2331 17.9436V27.1036L29.2147 27.075C29.2264 27.2567 29.2331 27.4416 29.2331 27.6283C29.2331 32.1772 25.5318 35.8803 20.9812 35.8803C16.4306 35.8803 12.7292 32.1772 12.7292 27.6283C12.7292 23.0794 16.4306 19.3747 20.9812 19.3747C21.4268 19.3747 21.8641 19.41 22.2912 19.4789V23.9454C21.8809 23.7991 21.4403 23.7201 20.9812 23.7201C18.827 23.7201 17.073 25.4724 17.073 27.6283C17.073 29.7842 18.827 31.5365 20.9812 31.5365C23.1354 31.5365 24.8894 29.7825 24.8894 27.6283C24.8894 27.5476 24.8877 27.4669 24.8827 27.3862V9.58228H29.4114C29.4282 9.9657 29.4434 10.3525 29.4602 10.7359C29.4904 11.491 29.7595 12.2158 30.2287 12.8094C30.7786 13.5073 31.5909 14.3179 32.731 14.9653C33.7989 15.569 34.8012 15.8297 35.5108 15.9525Z" fill="#00F7EF"/>
<path d="M36.5014 17.9332V22.4653C35.7093 22.388 34.6801 22.208 33.5416 21.791C32.055 21.2461 30.9485 20.5011 30.2237 19.9243V29.0844L30.2052 29.0558C30.2169 29.2374 30.2237 29.4224 30.2237 29.6091C30.2237 34.158 26.5223 37.861 21.9717 37.861C17.4211 37.861 13.7197 34.158 13.7197 29.6091C13.7197 25.0602 17.4211 21.3554 21.9717 21.3554C22.4173 21.3554 22.8546 21.3907 23.2817 21.4597V25.9262C22.8714 25.7799 22.4308 25.7009 21.9717 25.7009C19.8175 25.7009 18.0635 27.4532 18.0635 29.6091C18.0635 31.765 19.8175 33.5173 21.9717 33.5173C24.1259 33.5173 25.8799 31.7633 25.8799 29.6091C25.8799 29.5284 25.8782 29.4476 25.8732 29.3669V11.5664H30.4019C30.4187 11.9498 30.4339 12.3366 30.4507 12.72C30.481 13.4751 30.75 14.1999 31.2192 14.7935C31.7691 15.4914 32.5814 16.302 33.7215 16.9494C34.7894 17.5532 35.7917 17.8138 36.5014 17.9366V17.9332Z" fill="white"/>
<defs>
<linearGradient id="paint0_linear_81_148" x1="8.01258" y1="41.9901" x2="41.9874" y2="8.01695" gradientUnits="userSpaceOnUse">
<stop stop-color="#FAAD4F"/>
<stop offset="0.35" stop-color="#DD2A7B"/>
<stop offset="0.62" stop-color="#9537B0"/>
<stop offset="1" stop-color="#515BD4"/>
</linearGradient>
</defs>
</svg>
